<svg xmlns="http://www.w3.org/2000/svg" viewBox="0 0 120 51" enable-background="new 0 0 120 51"><path d="M119.082 13.987c-1.01-.008-2.024.056-3.028-.019-.993-.074-1.537.377-1.947 1.216-1.836 3.756-3.671 7.513-5.564 11.24-.857 1.688-1.96 3.238-3.398 4.486-.682.592-1.475 1.151-2.315 1.448-1.189.419-1.75-.001-1.538-1.375.106-.687.278-1.393.574-2.016 1.184-2.489 2.413-4.957 3.655-7.419 1.065-2.111 2.173-4.2 3.255-6.302.45-.874.241-1.247-.7-1.259-1.054-.013-2.108.012-3.161-.021-.866-.028-1.455.328-1.86 1.088-.875 1.642-1.75 3.286-2.674 4.901-1.325 2.315-2.261 4.849-3.941 6.962-1.394 1.754-2.779 3.526-4.687 4.758-.589.38-1.295.644-1.983.789-.754.16-1.268-.306-1.223-1.073.034-.594.143-1.249.436-1.751 1.257-2.155 2.591-4.266 3.904-6.389 1.221-1.974 2.504-3.912 3.643-5.932.325-.576.411-1.406.312-2.075-.144-.968-1.179-1.546-2.49-1.484-1.356.065-2.709.233-4.059.387-.84.096-1.673.249-2.61.392l.162-1.041c.211-1.514-.478-2.614-1.811-2.895-1.416-.299-2.874.495-3.225 1.841-.242.928-.151 1.856.23 2.771.172.412.276.956.158 1.367 0 0-4.473 9.585-6.473 12.126-1.453 1.847-3.648 3.691-6.495 3.823-1.535.071-2.626-.383-3.133-1.435-.569-1.183-.401-2.397-.121-3.605.027-.118.242-.259.383-.276 2.275-.278 4.371-1.081 6.356-2.185 2.511-1.396 4.56-3.211 5.224-6.169.444-1.978-.371-4.234-2.468-4.92-1.575-.515-3.121-.34-4.641.176-2.513.853-4.53 2.442-6.331 4.345-2.133 2.255-3.751 4.864-4.516 7.84-.426 1.655-1.312 2.747-2.508 3.758-.201.17-.401.341-.61.501-1.397 1.071-2.916 1.877-4.707 2.006-.999.072-1.974-.086-2.506-1.069-.553-1.022-.351-2.125.027-3.13.142-.378.726-.622 1.146-.86 3.825-2.157 6.833-5.181 9.297-8.77 1.979-2.882 3.384-6.027 4.112-9.459.232-1.094.262-2.194-.197-3.232-.569-1.285-2.189-1.829-3.864-1.454-2.391.536-4.37 1.78-6.092 3.46-4.717 4.603-7.702 10.23-9.453 16.511-.502 1.802-1.237 3.339-2.583 4.6-.448.42-.88.863-1.362 1.241-1.89 1.48-3.955 2.435-6.443 2.031-.824-.134-1.485-.501-1.848-1.297-.496-1.089-.48-2.201-.218-3.344.088-.382.243-.553.633-.609 2.923-.414 5.547-1.582 7.937-3.274 1.797-1.272 3.001-2.97 3.49-5.158.586-2.626-1.143-4.947-3.815-5.096-1.642-.091-3.175.27-4.634 1.001-3.973 1.989-6.708 5.158-8.576 9.114-1.235 2.615-2.04 5.333-1.32 8.266.486 1.98 1.632 3.412 3.599 4.111 2.153.765 4.288.495 6.389-.185 2.876-.931 5.154-2.754 7.155-4.962l.536-.565c.094.713.138 1.274.247 1.822.413 2.068 1.602 3.478 3.642 4.084 1.779.529 3.534.222 5.228-.379 2.408-.854 4.345-2.425 6.114-4.224l.557-.547c.091.28.156.436.193.598.716 3.186 2.953 4.684 5.987 4.796 2.337.086 4.508-.568 6.528-1.713 2.972-1.684 5.274-4.099 7.042-6.963 2.126-3.445 4.052-7.013 6.092-10.512.146-.251.497-.479.786-.532.774-.14 1.565-.195 2.352-.246.217-.014.551.039.634.179.084.142-.064.432-.133.65-.032.1-.123.18-.179.274-1.913 3.219-3.873 6.411-5.714 9.671-.843 1.492-1.303 3.157-1.314 4.906-.014 2.047.896 3.54 2.691 3.942 1.012.226 2.165.221 3.173-.021 2.119-.507 3.799-1.846 5.337-3.346.477-.465.929-.956 1.393-1.435.124.327.107.581.101.835-.056 2.617 1.418 4.102 4.042 4.071 1.905-.023 3.522-.791 4.994-1.934l.439-.308c-.59 1.476-1.292 2.849-2.025 4.207-.055.102-.347.159-.493.115-.607-.18-1.197-.418-1.8-.615-2.15-.703-4.34-.811-6.453-.004-3.305 1.261-5.114 4.043-4.957 7.583.103 2.307 1.222 4.089 3.408 4.964 2.927 1.171 5.718.7 8.311-1.039 1.843-1.236 3.164-2.955 4.331-4.801.32-.506.641-.755 1.3-.745 2.415.037 4.67-1.711 5.171-3.974.072-.325-.147-.714-.231-1.074-.35.098-.737.132-1.042.308-.431.249-.767.674-1.209.89-.45.22-.979.277-1.616.443l.168-.477c2.891-5.92 5.777-11.842 8.677-17.757 1.137-2.319 2.309-4.621 3.46-6.934.414-.837.199-1.201-.717-1.209zm-45.462 3.626c.217-.138.646-.321.886-.403 2.159-.732.988 2.199.988 2.199-1.156 2.933-7.755 5.304-7.755 5.304 1.365-2.995 3.124-5.343 5.881-7.1zm-21.93 6.414c1.934-5.003 4.534-9.617 8.111-13.642.476-.536 1.025-1.025 1.613-1.443.242-.172.337-.182.687-.272.611 3.905-5.674 13.519-10.707 16.388.104-.437.18-.73.296-1.031zm-12.164-6.168c.405-.279.875-.501 1.348-.635.609-.172 1.124.207 1.025.819-.112.689-.325 1.419-.698 1.999-1.732 2.698-4.747 4.134-6.195 4.487-.379.092-.99.157-.99.157 1.288-2.756 3.014-5.106 5.51-6.827zm59.8 27.001c-.759 1.141-1.637 2.17-2.942 2.735-1.583.684-3.339.03-3.822-1.433-.555-1.678.748-3.847 2.503-4.237 1.58-.351 3.09-.024 4.6.375.289.076.568.192.983.335-.461.78-.857 1.526-1.322 2.225zm-87.237-29.82c1.119.508 2.002 1.014 2.95 1.321 3.809 1.233 7.65 1.221 11.444-.032 2.324-.768 4.284-2.103 5.534-4.295 1.235-2.165 1-4.512-.631-6.185-.999-1.025-2.276-1.574-3.642-1.846-3.314-.659-6.543-.204-9.705.898-2.573.896-4.886 2.25-7.001 3.95-.401.322-.622.322-.907-.151-.916-1.525-1.323-3.186-1.441-4.934-.051-.766-.048-1.535-.117-2.299-.04-.44-.302-.721-.795-.697-.464.023-.622.31-.692.726-.525 3.101-.044 6.076 1.176 8.937.201.471.194.73-.156 1.08-2.205 2.205-4.009 4.705-5.345 7.522-1.581 3.336-2.631 6.787-1.97 10.546.561 3.194 2.31 5.456 5.377 6.576 2.74 1 5.553 1.024 8.352.25 5.521-1.527 9.309-4.899 10.913-10.496.385-1.342.485-2.756.056-4.099-.899-2.811-3.764-3.863-6.371-2.4-2.401 1.348-3.311 3.568-3.534 6.163-.042.494-.214 1.148.532 1.292.719.138.762-.546 1.032-.971.581-.916 1.158-1.845 1.844-2.68.405-.493 1.065-.79 1.726-.491.697.315.706 1.018.651 1.659-.31 3.625-2.119 6.297-5.271 8.046-1.608.892-3.379 1.222-5.153.681-2.334-.712-3.321-2.499-3.509-4.895-.229-2.93.702-5.635 1.943-8.222.821-1.708 1.815-3.332 2.71-4.954zm8.021-7.381c1.336-.637 2.726-1.102 4.206-1.183 1.05-.057 2.105.005 3.012.675.974.72 1.278 1.932.749 3.034-.695 1.448-1.929 2.269-3.392 2.703-3.272.971-6.502.539-9.689-.477-.157-.05-.325-.086-.549-.286 1.6-1.799 3.474-3.422 5.663-4.466z" fill="#fff"/></svg>